<svg width="76" height="76" viewBox="0 0 76 76" fill="none" xmlns="http://www.w3.org/2000/svg">
<g clip-path="url(#clip0_97354_6)">
<rect width="76" height="76" rx="38" fill="white"/>
<path fill-rule="evenodd" clip-rule="evenodd" d="M29 21C28.4477 21 28 21.4477 28 22V24.8305C28 25.3828 28.4477 25.8305 29 25.8305H57.0371C64.9149 25.8305 71.102 31.8324 71.102 39.602V39.602C71.102 39.8218 71.2802 40 71.5001 40H75.602C75.8218 40 76 39.8218 76 39.602V39.602C76 29.2178 67.5659 21 57.0371 21H29Z" fill="#6B7B84" stroke="#80949F" stroke-width="0.5"/>
<path fill-rule="evenodd" clip-rule="evenodd" d="M5.96815 40.3354V40.3354C5.96815 40.1502 5.81798 40 5.63273 40H1.33543C1.15018 40 1 40.1502 1 40.3354V40.3354C1 50.7814 8.95997 59.406 19.2528 59.9704L51.9991 59.9991C52.5518 59.9996 53 59.5517 53 58.9991V55.9639C53 55.4116 52.5523 54.9639 52 54.9639H20.3879C12.4178 54.9422 5.96815 48.4253 5.96815 40.3354Z" fill="#6B7B84" stroke="#80949F" stroke-width="0.5"/>
<path fill-rule="evenodd" clip-rule="evenodd" d="M22.2435 51C24.3658 51 26.1335 50.5969 27.8795 49.7674L28 49.6571V43.7213L27.3467 44.5391C26.0895 45.8823 24.4011 46.6217 22.4909 46.6217C18.933 46.6217 15.3596 44.3731 15.3596 40.0757C15.3596 36.8281 17.8241 33.3767 22.3658 33.3767C23.272 33.3767 25.4759 33.5862 27.3435 35.5254L28 36.3162V30.4072L27.8848 30.2955C26.1057 29.4238 24.2914 29 22.222 29C18.6831 29 15.921 29.911 13.7217 31.7833C12.3267 32.9567 10 35.5864 10 40.0139C10 43.2876 11.1922 45.8443 13.7396 48.0618C16.1094 50.0937 18.737 51 22.2435 51" fill="#6B7B84"/>
<path d="M22.2435 51C24.3658 51 26.1335 50.5969 27.8795 49.7674L28 49.6571V43.7213L27.3467 44.5391C26.0895 45.8823 24.4011 46.6217 22.4909 46.6217C18.933 46.6217 15.3596 44.3731 15.3596 40.0757C15.3596 36.8281 17.8241 33.3767 22.3658 33.3767C23.272 33.3767 25.4759 33.5862 27.3435 35.5254L28 36.3162V30.4072L27.8848 30.2955C26.1057 29.4238 24.2914 29 22.222 29C18.6831 29 15.921 29.911 13.7217 31.7833C12.3267 32.9567 10 35.5864 10 40.0139C10 43.2876 11.1922 45.8443 13.7396 48.0618C16.1094 50.0937 18.737 51 22.2435 51" stroke="#80949F" stroke-width="0.5"/>
<path fill-rule="evenodd" clip-rule="evenodd" d="M37.4345 33.6898H38.4865C39.4516 33.6898 40.5515 33.7425 41.384 34.3099C41.7905 34.6003 42.4726 35.2725 42.4726 36.4935C42.4726 37.3957 42.0738 38.2048 41.4153 38.7096C40.5708 39.3225 39.5672 39.2874 38.7607 39.2874H37.4345V33.6898ZM39.7984 43.3515C42.2903 43.3515 44.2408 42.6327 45.5954 41.2786C47.2616 39.6158 47.5106 37.3285 47.5106 36.1226C47.5106 34.8322 47.2047 32.3155 45.1534 30.4932C43.472 29.0198 41.6779 28.6516 39.1472 28.6516H32.3962V51.0433H37.531V43.3515H39.7984V43.3515Z" fill="#6B7B84"/>
<path d="M37.4345 33.6898V33.4398H37.1845V33.6898H37.4345ZM41.384 34.3099L41.5294 34.1064L41.5248 34.1033L41.384 34.3099ZM41.4153 38.7096L41.5622 38.912L41.5673 38.908L41.4153 38.7096ZM37.4345 39.2874H37.1845V39.5374H37.4345V39.2874ZM45.5954 41.2786L45.4188 41.1017L45.4186 41.1018L45.5954 41.2786ZM45.1534 30.4932L45.3195 30.3063L45.3182 30.3052L45.1534 30.4932ZM32.3962 28.6516V28.4016H32.1462V28.6516H32.3962ZM32.3962 51.0433H32.1462V51.2933H32.3962V51.0433ZM37.531 51.0433V51.2933H37.781V51.0433H37.531ZM37.531 43.3515V43.1015H37.281V43.3515H37.531ZM37.4345 33.9398H38.4865V33.4398H37.4345V33.9398ZM38.4865 33.9398C39.4573 33.9398 40.4821 33.9977 41.2432 34.5165L41.5248 34.1033C40.6209 33.4872 39.4459 33.4398 38.4865 33.4398V33.9398ZM41.2387 34.5134C41.6057 34.7755 42.2226 35.3808 42.2226 36.4935H42.7226C42.7226 35.1642 41.9753 34.4251 41.5293 34.1065L41.2387 34.5134ZM42.2226 36.4935C42.2226 37.3217 41.8572 38.0559 41.2632 38.5112L41.5673 38.908C42.2905 38.3537 42.7226 37.4698 42.7226 36.4935H42.2226ZM41.2684 38.5073C40.5016 39.0638 39.5875 39.0374 38.7607 39.0374V39.5374C39.5468 39.5374 40.6401 39.5812 41.5621 38.9119L41.2684 38.5073ZM38.7607 39.0374H37.4345V39.5374H38.7607V39.0374ZM37.6845 39.2874V33.6898H37.1845V39.2874H37.6845ZM39.7984 43.6015C42.3388 43.6015 44.3594 42.8676 45.7721 41.4554L45.4186 41.1018C44.1222 42.3978 42.2418 43.1015 39.7984 43.1015V43.6015ZM45.772 41.4556C47.5095 39.7216 47.7606 37.3499 47.7606 36.1226H47.2606C47.2606 37.3071 47.0136 39.5101 45.4188 41.1017L45.772 41.4556ZM47.7606 36.1226C47.7606 34.8041 47.4497 32.1987 45.3195 30.3063L44.9874 30.6801C46.9598 32.4322 47.2606 34.8603 47.2606 36.1226H47.7606ZM45.3182 30.3052C43.5713 28.7744 41.7054 28.4016 39.1472 28.4016V28.9016C41.6504 28.9016 43.3727 29.2652 44.9887 30.6812L45.3182 30.3052ZM39.1472 28.4016H32.3962V28.9016H39.1472V28.4016ZM32.1462 28.6516V51.0433H32.6462V28.6516H32.1462ZM32.3962 51.2933H37.531V50.7933H32.3962V51.2933ZM37.781 51.0433V43.3515H37.281V51.0433H37.781ZM37.531 43.6015H39.7984V43.1015H37.531V43.6015Z" fill="#80949F"/>
<path fill-rule="evenodd" clip-rule="evenodd" d="M63.0095 39.3899C61.8699 38.4181 60.2792 37.8548 58.4738 37.2705C57.1875 36.8397 56.4787 36.6023 56.0062 36.1876C55.6332 35.8829 55.467 35.5521 55.467 35.1149C55.467 34.1572 56.1431 33.1337 58.0412 33.1337C59.3311 33.1337 60.4111 33.6646 61.2515 34.7109L61.5851 35.1264L64.353 31.7353L64.1006 31.492C62.4078 29.8615 60.1771 29 57.6496 29C52.5501 29 50.2674 32.1932 50.2674 35.3578C50.2674 37.056 50.8966 38.4257 52.1337 39.4269C53.2412 40.3406 54.5919 40.8525 55.8875 41.2704L56.0339 41.3171C57.1844 41.6832 58.3743 42.062 59.0849 42.6741C59.5794 43.1114 59.7997 43.5865 59.7997 44.2147C59.7997 45.6543 58.6218 46.6217 56.8688 46.6217C55.483 46.6217 53.6583 45.968 52.6929 44.1336L52.4404 43.653L49 46.7182L49.2029 46.9945C50.3005 48.4904 52.7774 51 57.032 51C61.7233 51 65 48.097 65 43.9407C65 41.5634 63.9164 40.1525 63.0095 39.3899" fill="#6B7B84"/>
<path d="M63.0095 39.3899C61.8699 38.4181 60.2792 37.8548 58.4738 37.2705C57.1875 36.8397 56.4787 36.6023 56.0062 36.1876C55.6332 35.8829 55.467 35.5521 55.467 35.1149C55.467 34.1572 56.1431 33.1337 58.0412 33.1337C59.3311 33.1337 60.4111 33.6646 61.2515 34.7109L61.5851 35.1264L64.353 31.7353L64.1006 31.492C62.4078 29.8615 60.1771 29 57.6496 29C52.5501 29 50.2674 32.1932 50.2674 35.3578C50.2674 37.056 50.8966 38.4257 52.1337 39.4269C53.2412 40.3406 54.5919 40.8525 55.8875 41.2704L56.0339 41.3171C57.1844 41.6832 58.3743 42.062 59.0849 42.6741C59.5794 43.1114 59.7997 43.5865 59.7997 44.2147C59.7997 45.6543 58.6218 46.6217 56.8688 46.6217C55.483 46.6217 53.6583 45.968 52.6929 44.1336L52.4404 43.653L49 46.7182L49.2029 46.9945C50.3005 48.4904 52.7774 51 57.032 51C61.7233 51 65 48.097 65 43.9407C65 41.5634 63.9164 40.1525 63.0095 39.3899" stroke="#80949F" stroke-width="0.5"/>
</g>
<defs>
<clipPath id="clip0_97354_6">
<rect width="76" height="76" rx="38" fill="white"/>
</clipPath>
</defs>
</svg>
