<svg width="76" height="76" fill="none" xmlns="http://www.w3.org/2000/svg"><g clip-path="url(#a)"><rect width="76" height="76" rx="38" fill="#fff"/><path fill-rule="evenodd" clip-rule="evenodd" d="M29 21a1 1 0 0 0-1 1v2.83a1 1 0 0 0 1 1h28.037c7.878 0 14.065 6.002 14.065 13.772 0 .22.178.398.398.398h4.102c.22 0 .398-.178.398-.398C76 29.218 67.566 21 57.037 21H29ZM5.968 40.335A.335.335 0 0 0 5.633 40H1.335a.335.335 0 0 0-.335.335C1 50.781 8.96 59.406 19.253 59.97l32.746.03A1 1 0 0 0 53 59v-3.036a1 1 0 0 0-1-1H20.388c-7.97-.022-14.42-6.539-14.42-14.629Z" fill="#6B7B84" stroke="#80949F" stroke-width=".5"/><path fill-rule="evenodd" clip-rule="evenodd" d="M22.244 51c2.122 0 3.89-.403 5.636-1.233l.12-.11v-5.936l-.653.818c-1.258 1.343-2.946 2.083-4.856 2.083-3.558 0-7.131-2.249-7.131-6.546 0-3.248 2.464-6.7 7.006-6.7.906 0 3.11.21 4.977 2.15l.657.79v-5.909l-.115-.111C26.105 29.424 24.29 29 22.222 29c-3.539 0-6.301.911-8.5 2.783C12.327 32.957 10 35.586 10 40.013c0 3.275 1.192 5.831 3.74 8.049C16.11 50.094 18.737 51 22.244 51" fill="#6B7B84"/><path d="M22.244 51c2.122 0 3.89-.403 5.636-1.233l.12-.11v-5.936l-.653.818c-1.258 1.343-2.946 2.083-4.856 2.083-3.558 0-7.131-2.249-7.131-6.546 0-3.248 2.464-6.7 7.006-6.7.906 0 3.11.21 4.977 2.15l.657.79v-5.909l-.115-.111C26.105 29.424 24.29 29 22.222 29c-3.539 0-6.301.911-8.5 2.783C12.327 32.957 10 35.586 10 40.013c0 3.275 1.192 5.831 3.74 8.049C16.11 50.094 18.737 51 22.244 51" stroke="#80949F" stroke-width=".5"/><path fill-rule="evenodd" clip-rule="evenodd" d="M37.434 33.69h1.053c.965 0 2.064.053 2.897.62.407.29 1.089.962 1.089 2.183 0 .903-.4 1.712-1.058 2.217-.844.612-1.848.577-2.654.577h-1.327V33.69Zm2.364 9.662c2.492 0 4.443-.72 5.797-2.073 1.667-1.663 1.916-3.95 1.916-5.156 0-1.29-.306-3.807-2.358-5.63-1.681-1.473-3.475-1.841-6.006-1.841h-6.75v22.391h5.134v-7.691h2.267Z" fill="#6B7B84"/><path d="M37.434 33.69v-.25h-.25v.25h.25Zm3.95.62.145-.204-.004-.003-.141.207Zm.031 4.4.147.202.005-.004-.152-.198Zm-3.98.577h-.25v.25h.25v-.25Zm8.16 1.992-.176-.177.176.177Zm-.442-10.786.166-.187-.166.187Zm-12.757-1.841v-.25h-.25v.25h.25Zm0 22.391h-.25v.25h.25v-.25Zm5.135 0v.25h.25v-.25h-.25Zm0-7.691v-.25h-.25v.25h.25Zm-.096-9.412h1.051v-.5h-1.051v.5Zm1.051 0c.971 0 1.996.058 2.757.577l.282-.414c-.904-.616-2.08-.663-3.038-.663v.5Zm2.753.573c.367.263.984.868.984 1.98h.5c0-1.329-.748-2.068-1.194-2.387l-.29.407Zm.984 1.98c0 .829-.366 1.563-.96 2.018l.304.397c.724-.554 1.156-1.438 1.156-2.415h-.5Zm-.955 2.014c-.766.557-1.68.53-2.507.53v.5c.786 0 1.88.044 2.801-.625l-.294-.405Zm-2.507.53h-1.327v.5h1.327v-.5Zm-1.077.25V33.69h-.5v5.597h.5Zm2.114 4.315c2.54 0 4.561-.734 5.974-2.147l-.353-.353c-1.297 1.296-3.177 2-5.62 2v.5Zm5.974-2.146c1.738-1.734 1.989-4.106 1.989-5.333h-.5c0 1.184-.247 3.387-1.842 4.979l.353.354Zm1.989-5.333c0-1.319-.311-3.924-2.442-5.817l-.332.374c1.973 1.752 2.274 4.18 2.274 5.443h.5Zm-2.443-5.818c-1.747-1.53-3.613-1.903-6.17-1.903v.5c2.502 0 4.225.363 5.84 1.78l.33-.377Zm-6.17-1.903h-6.752v.5h6.751v-.5Zm-7.002.25v22.391h.5V28.652h-.5Zm.25 22.641h5.135v-.5h-5.135v.5Zm5.385-.25v-7.691h-.5v7.691h.5Zm-.25-7.441h2.267v-.5h-2.267v.5Z" fill="#80949F"/><path fill-rule="evenodd" clip-rule="evenodd" d="M63.01 39.39c-1.14-.972-2.73-1.535-4.536-2.12-1.286-.43-1.995-.668-2.468-1.082-.373-.305-.539-.636-.539-1.073 0-.958.676-1.981 2.574-1.981 1.29 0 2.37.53 3.21 1.577l.334.415 2.768-3.39-.252-.244C62.408 29.862 60.177 29 57.65 29c-5.1 0-7.383 3.193-7.383 6.358 0 1.698.63 3.068 1.867 4.069 1.107.914 2.458 1.425 3.754 1.843l.146.047c1.15.366 2.34.745 3.05 1.357.495.437.716.913.716 1.54 0 1.44-1.178 2.408-2.931 2.408-1.386 0-3.21-.654-4.176-2.488l-.253-.481L49 46.718l.203.276C50.3 48.49 52.777 51 57.032 51 61.723 51 65 48.097 65 43.94c0-2.377-1.084-3.787-1.99-4.55" fill="#6B7B84"/><path d="M63.01 39.39c-1.14-.972-2.73-1.535-4.536-2.12-1.286-.43-1.995-.668-2.468-1.082-.373-.305-.539-.636-.539-1.073 0-.958.676-1.981 2.574-1.981 1.29 0 2.37.53 3.21 1.577l.334.415 2.768-3.39-.252-.244C62.408 29.862 60.177 29 57.65 29c-5.1 0-7.383 3.193-7.383 6.358 0 1.698.63 3.068 1.867 4.069 1.107.914 2.458 1.425 3.754 1.843l.146.047c1.15.366 2.34.745 3.05 1.357.495.437.716.913.716 1.54 0 1.44-1.178 2.408-2.931 2.408-1.386 0-3.21-.654-4.176-2.488l-.253-.481L49 46.718l.203.276C50.3 48.49 52.777 51 57.032 51 61.723 51 65 48.097 65 43.94c0-2.377-1.084-3.787-1.99-4.55" stroke="#80949F" stroke-width=".5"/></g><defs><clipPath id="a"><rect width="76" height="76" rx="38" fill="#fff"/></clipPath></defs></svg>